<svg width="26" height="26" viewBox="0 0 26 26" fill="none" xmlns="http://www.w3.org/2000/svg">
<path fill-rule="evenodd" clip-rule="evenodd" d="M0.926622 3.47269C0.223678 2.76975 0.223678 1.63005 0.926622 0.92711C1.62957 0.224166 2.76926 0.224166 3.47221 0.92711L12.9995 10.4544L22.5269 0.92711C23.2298 0.224166 24.3695 0.224166 25.0724 0.92711C25.7754 1.63005 25.7754 2.76975 25.0724 3.47269L15.5451 13L25.0722 22.5271C25.7751 23.2301 25.7751 24.3697 25.0722 25.0727C24.3693 25.7756 23.2296 25.7756 22.5266 25.0727L12.9995 15.5456L3.47245 25.0727C2.7695 25.7756 1.6298 25.7756 0.926861 25.0727C0.223918 24.3697 0.223917 23.2301 0.926861 22.5271L10.4539 13L0.926622 3.47269Z" fill="#6D6E6F"/>
</svg>
