<svg xmlns="http://www.w3.org/2000/svg" width="30" height="32" viewBox="0 0 30 32" fill="none">
  <path d="M9.35667 14.5484C8.204 12.9475 6.79132 11.6479 5.22154 10.6667C3.65175 9.6855 1.92483 9.0227 0.143674 8.69531C-0.110529 10.4888 -0.0294757 12.3371 0.403299 14.1372C0.836074 15.9374 1.62057 17.6894 2.77324 19.2904C3.80611 20.7249 5.04793 21.9167 6.4245 22.8541C7.80107 23.7916 9.31239 24.4748 10.8842 24.8924V28.1466V31.4008C10.8842 31.5659 10.9513 31.7155 11.0599 31.8239C11.1684 31.9323 11.3183 31.9994 11.4839 31.9994C11.6488 31.9994 11.7984 31.9323 11.9068 31.8239C12.0152 31.7155 12.0823 31.5659 12.0823 31.4008V27.9214V24.4419C12.0829 24.4142 12.0829 24.3837 12.0827 24.3513C12.0826 24.3189 12.0823 24.2846 12.0823 24.2491L12.0818 24.2492L12.0813 24.2493C12.2124 22.5901 12.0599 20.8991 11.6103 19.2559C11.1607 17.6126 10.414 16.0169 9.35667 14.5484Z" fill="#9BC620"/>
</svg>