<svg width="48" height="40" viewBox="0 0 48 40" fill="none" xmlns="http://www.w3.org/2000/svg">
<path id="Headline" d="M11.4952 39.1916C8.05593 39.1916 5.43911 37.8832 3.64471 35.2664C1.85032 32.6495 0.953125 29.0608 0.953125 24.5C0.953125 19.1916 2.26153 14.5187 4.87836 10.4813C7.49518 6.44393 11.4952 3.11682 16.8784 0.5L20.4671 7.67757C17.1027 9.32243 14.5606 11.3037 12.841 13.6215C11.1961 15.8645 10.3737 18.6308 10.3737 21.9206C10.5232 21.8458 10.7101 21.8084 10.9344 21.8084C11.1587 21.8084 11.3456 21.8084 11.4952 21.8084C13.8877 21.8084 15.9064 22.5561 17.5513 24.0514C19.2709 25.472 20.1307 27.4533 20.1307 29.9953C20.1307 32.7617 19.3083 35.0047 17.6634 36.7243C16.0185 38.3692 13.9625 39.1916 11.4952 39.1916ZM38.0746 39.1916C34.6354 39.1916 32.0185 37.8832 30.2242 35.2664C28.4298 32.6495 27.5326 29.0608 27.5326 24.5C27.5326 19.1916 28.841 14.5187 31.4578 10.4813C34.0746 6.44393 38.0746 3.11682 43.4578 0.5L47.0466 7.67757C43.6821 9.32243 41.14 11.3037 39.4204 13.6215C37.7756 15.8645 36.9531 18.6308 36.9531 21.9206C37.1027 21.8458 37.2896 21.8084 37.5139 21.8084C37.7382 21.8084 37.9251 21.8084 38.0746 21.8084C40.4671 21.8084 42.4858 22.5561 44.1307 24.0514C45.8503 25.472 46.7101 27.4533 46.7101 29.9953C46.7101 32.7617 45.8877 35.0047 44.2428 36.7243C42.598 38.3692 40.5419 39.1916 38.0746 39.1916Z" fill="#0077B6"/>
</svg>
